<svg  width="32" height="33" viewBox="0 0 32 33" fill="none" xmlns="http://www.w3.org/2000/svg">
    <path fill-rule="evenodd" clip-rule="evenodd"
          d="M26.6667 30.0277C28.1394 30.0277 29.3333 28.8338 29.3333 27.361C29.3333 25.8882 28.1394 24.6943 26.6667 24.6943C25.1939 24.6943 24 25.8882 24 27.361C24 28.8338 25.1939 30.0277 26.6667 30.0277Z"
          fill="#737D9B"></path>
    <path opacity="0.5" fill-rule="evenodd" clip-rule="evenodd"
          d="M15.9987 30.0277C17.4715 30.0277 18.6654 28.8338 18.6654 27.361C18.6654 25.8882 17.4715 24.6943 15.9987 24.6943C14.5259 24.6943 13.332 25.8882 13.332 27.361C13.332 28.8338 14.5259 30.0277 15.9987 30.0277Z"
          fill="#A1A8BD"></path>
    <path fill-rule="evenodd" clip-rule="evenodd"
          d="M5.33464 30.0277C6.80739 30.0277 8.0013 28.8338 8.0013 27.361C8.0013 25.8882 6.80739 24.6943 5.33464 24.6943C3.86188 24.6943 2.66797 25.8882 2.66797 27.361C2.66797 28.8338 3.86188 30.0277 5.33464 30.0277Z"
          fill="#737D9B"></path>
    <path fill-rule="evenodd" clip-rule="evenodd"
          d="M26.6667 19.3607C28.1394 19.3607 29.3333 18.1668 29.3333 16.694C29.3333 15.2213 28.1394 14.0273 26.6667 14.0273C25.1939 14.0273 24 15.2213 24 16.694C24 18.1668 25.1939 19.3607 26.6667 19.3607Z"
          fill="#737D9B"></path>
    <path opacity="0.5" fill-rule="evenodd" clip-rule="evenodd"
          d="M15.9987 19.3607C17.4715 19.3607 18.6654 18.1668 18.6654 16.694C18.6654 15.2213 17.4715 14.0273 15.9987 14.0273C14.5259 14.0273 13.332 15.2213 13.332 16.694C13.332 18.1668 14.5259 19.3607 15.9987 19.3607Z"
          fill="#A1A8BD"></path>
    <path fill-rule="evenodd" clip-rule="evenodd"
          d="M5.33464 19.3607C6.80739 19.3607 8.0013 18.1668 8.0013 16.694C8.0013 15.2213 6.80739 14.0273 5.33464 14.0273C3.86188 14.0273 2.66797 15.2213 2.66797 16.694C2.66797 18.1668 3.86188 19.3607 5.33464 19.3607Z"
          fill="#737D9B"></path>
    <path fill-rule="evenodd" clip-rule="evenodd"
          d="M26.6667 8.69466C28.1394 8.69466 29.3333 7.50075 29.3333 6.02799C29.3333 4.55524 28.1394 3.36133 26.6667 3.36133C25.1939 3.36133 24 4.55524 24 6.02799C24 7.50075 25.1939 8.69466 26.6667 8.69466Z"
          fill="#737D9B"></path>
    <path opacity="0.5" fill-rule="evenodd" clip-rule="evenodd"
          d="M15.9987 8.69466C17.4715 8.69466 18.6654 7.50075 18.6654 6.02799C18.6654 4.55524 17.4715 3.36133 15.9987 3.36133C14.5259 3.36133 13.332 4.55524 13.332 6.02799C13.332 7.50075 14.5259 8.69466 15.9987 8.69466Z"
          fill="#A1A8BD"></path>
    <path fill-rule="evenodd" clip-rule="evenodd"
          d="M5.33464 8.69466C6.80739 8.69466 8.0013 7.50075 8.0013 6.02799C8.0013 4.55524 6.80739 3.36133 5.33464 3.36133C3.86188 3.36133 2.66797 4.55524 2.66797 6.02799C2.66797 7.50075 3.86188 8.69466 5.33464 8.69466Z"
          fill="#737D9B"></path>
</svg>